# xmcd
#
# Track frame offsets:
# 150
# 23843
# 44531
# 62889
# 82519
# 112760
# 138477
# 160033
# 186091
# 207670
# 231657
# 256988
# 281986
# 314891
#
# Disc length: 4496 seconds
#
#
# Revision: 0
# Processed by: cddbd v1.5.2PL0 Copyright (c) Steve Scherf et al.
# Submitted via: FreeRIP 2.96 
#
DISCID=ce118e0e
DTITLE=Various Artist - Cafe del Mar - Volumen Doce [CD2)
DYEAR=2005
DGENRE=Ambient
TTITLE0=Someone like you - Blank and Jones Mike Francis
TTITLE1=Eso es - Vigo
TTITLE2=Montreux Jazz -  Franchesca M.
TTITLE3=Make it happen - Luminous
TTITLE4=Junto al mar - Paco Fernandez
TTITLE5=Le vent - La Caina
TTITLE6=One Life - Manara Mc. Kay
TTITLE7=Amanecer - Rafa Gas and Fer Delgado
TTITLE8=Looking Down -  Friction
TTITLE9=Two Rivers - Pep Lladó
TTITLE10=La Mauritta - Yann Kuhllmann
TTITLE11=Con amor - Nera y Félix
TTITLE12=Otis - Koru
TTITLE13=Lament - Light of Aidan
EXTD=
EXTT0=
EXTT1=
EXTT2=
EXTT3=
EXTT4=
EXTT5=
EXTT6=
EXTT7=
EXTT8=
EXTT9=
EXTT10=
EXTT11=
EXTT12=
EXTT13=
PLAYORDER=
